HIERARCHY
ROOT RootJoint
{
    OFFSET   0.000000   0.000000   0.000000
    CHANNELS 6 Xposition Yposition Zposition Xrotation Yrotation Zrotation
    JOINT lHip
    {
        OFFSET   0.100000  -0.051395   0.000000
        CHANNELS 3 Xrotation Yrotation Zrotation
        JOINT lKnee
        {
            OFFSET   0.000000  -0.410000   0.000000
            CHANNELS 3 Xrotation Yrotation Zrotation
            JOINT lAnkle
            {
                OFFSET   0.000000  -0.390000   0.000000
                CHANNELS 3 Xrotation Yrotation Zrotation
            }
        }
    }
    JOINT pelvis_lowerback
    {
        OFFSET   0.000000   0.093605   0.000000
        CHANNELS 3 Xrotation Yrotation Zrotation
        JOINT lowerback_torso
        {
            OFFSET   0.000000   0.100000   0.000000
            CHANNELS 3 Xrotation Yrotation Zrotation
            JOINT lTorso_Clavicle
            {
                OFFSET   0.001000   0.157500   0.000000
                CHANNELS 3 Xrotation Yrotation Zrotation
                JOINT lShoulder
                {
                    OFFSET   0.117647   0.000000   0.000000
                    CHANNELS 3 Xrotation Yrotation Zrotation
                    JOINT lElbow
                    {
                        OFFSET   0.245000   0.000000   0.000000
                        CHANNELS 3 Xrotation Yrotation Zrotation
                    }
                }
            }
            JOINT rTorso_Clavicle
            {
                OFFSET  -0.001000   0.157500   0.000000
                CHANNELS 3 Xrotation Yrotation Zrotation
                JOINT rShoulder
                {
                    OFFSET  -0.117647   0.000000   0.000000
                    CHANNELS 3 Xrotation Yrotation Zrotation
                    JOINT rElbow
                    {
                        OFFSET  -0.245000   0.000000   0.000000
                        CHANNELS 3 Xrotation Yrotation Zrotation
                    }
                }
            }
            JOINT torso_head
            {
                OFFSET   0.000000   0.282350   0.000000
                CHANNELS 3 Xrotation Yrotation Zrotation
                End Site
                {
                    OFFSET   0.000000   0.192650   0.000000
                }
            }
        }
    }
    JOINT rHip
    {
        OFFSET  -0.100000  -0.051395   0.000000
        CHANNELS 3 Xrotation Yrotation Zrotation
        JOINT rKnee
        {
            OFFSET   0.000000  -0.410000   0.000000
            CHANNELS 3 Xrotation Yrotation Zrotation
            JOINT rAnkle
            {
                OFFSET   0.000000  -0.390000   0.000000
                CHANNELS 3 Xrotation Yrotation Zrotation
            }
        }
    }
}
MOTION
Frames: 12
Frame Time:   0.008333
 -0.043007   0.900329   2.149589  -1.465460  -0.279036  -1.648354 -28.237100   9.262756   3.215672  67.321502   3.205792   2.582033   9.692101   2.300686   7.342564   3.636335  -0.385830   1.014565   3.311157  -1.910586   0.169204   0.047060   7.116676 -19.756829  16.900046 -28.545586 -51.382037   0.228497 -11.175145   0.074957   3.803629   2.233473  21.084701   8.177003  40.374818  43.747780   0.229929  18.511957  -2.286148   2.310560   0.330215   0.268184  -7.580895   0.474786   6.919825  13.216603  -3.115419   4.222192  -4.565567  -0.665670  -9.749421
 -0.044633   0.900394   2.158049  -1.437346  -0.639027  -1.611767 -29.200310   9.479597   3.179996  66.410665   3.149226   2.605754   8.098986   2.169084   7.686909   3.689714  -0.425581   1.096924   3.292364  -1.815319  -0.088003  -0.064127   7.510419 -19.672839  17.073193 -27.973842 -51.717171   0.229782 -11.053571  -0.038977   3.906567   2.505711  21.164137   7.310577  40.765930  43.321213   0.231921  18.967982  -2.436292   2.298127   0.351965   0.307353  -6.830423   0.391582   6.890366  12.916057  -2.872060   4.121856  -5.002305  -0.506495  -9.398809
 -0.046259   0.900459   2.166510  -1.409000  -0.999000  -1.575000 -30.164000   9.697000   3.148000  65.499900   3.092290   2.628570   6.506830   2.027970   8.027430   3.743150  -0.465255   1.179320   3.274000  -1.719970  -0.345166  -0.176000   7.904000 -19.588000  17.249200 -27.403000 -52.052500   0.231313 -10.932000  -0.152866   4.009150   2.778090  21.243100   6.442860  41.161900  42.900000   0.235186  19.424000  -2.586870   2.285680   0.373707   0.346526  -6.080000   0.308000   6.862000  12.616000  -2.628180   4.022820  -5.440000  -0.350000  -9.047000
 -0.046231   0.900440   2.175468  -1.368578  -1.336381  -1.454394 -30.688810   9.612645   2.975087  63.833291   3.120489   2.286930   5.510950   1.954599   7.902577   3.782654  -0.419860   1.264433   3.263483  -1.300823  -0.613135  -0.108636   7.891977 -19.623548  17.564803 -27.319143 -52.093720   0.237277 -10.917911  -0.241218   3.942687   2.743793  21.184682   5.645235  41.191364  43.079905   0.231239  19.624341  -2.692301   2.272389   0.356206   0.327369  -5.360484   0.493743   6.772230  12.276782  -2.487389   3.936729  -5.838047  -0.226083  -8.984036
 -0.046202   0.900421   2.184427  -1.327439  -1.673675  -1.333530 -31.213747   9.529855   2.801440  62.166827   3.158597   1.946246   4.514955   1.883407   7.776473   3.822090  -0.374406   1.349513   3.254929  -0.881631  -0.880989  -0.041282   7.879913 -19.659081  17.880236 -27.235489 -52.135429   0.243263 -10.903832  -0.329567   3.876191   2.709564  21.126226   4.847143  41.218940  43.260416   0.227680  19.824688  -2.797849   2.259092   0.338709   0.308208  -4.640654   0.678344   6.680132  11.937812  -2.346092   3.851482  -6.236227  -0.102607  -8.920213
 -0.046174   0.900403   2.193385  -1.285581  -2.010882  -1.212402 -31.738811   9.448638   2.627073  60.500550   3.206582   1.606801   3.518845   1.814417   7.649154   3.861459  -0.328894   1.434563   3.248335  -0.462404  -1.148758   0.026062   7.867807 -19.694598  18.195501 -27.152041 -52.177622   0.249271 -10.889761  -0.417914   3.809662   2.675403  21.067732   4.048615  41.244620  43.441495   0.224509  20.025042  -2.903518   2.245789   0.321217   0.289043  -3.920497   0.861772   6.585718  11.599086  -2.204294   3.767082  -6.634543   0.020423  -8.855533
 -0.046145   0.900384   2.202343  -1.243000  -2.348000  -1.091000 -32.264000   9.369000   2.452000  58.834500   3.264400   1.268880   2.522620   1.747650   7.520660   3.900760  -0.283323   1.519580   3.243700  -0.043150  -1.416470   0.093397   7.855660 -19.730100  18.510600 -27.068800 -52.220300   0.255301 -10.875700  -0.506258   3.743100   2.641310  21.009200   3.249680  41.268400  43.623100   0.221727  20.225400  -3.009310   2.232480   0.303729   0.269874  -3.200000   1.044000   6.489000  11.260600  -2.062000   3.683530  -7.033000   0.143000  -8.790000
 -0.045960   0.899809   2.211472  -1.189698  -2.640374  -1.002946 -32.520344   9.301889   2.322415  56.541235   3.340191   0.914616   2.287420   1.764542   7.430367   3.882168  -0.234739   1.612769   3.302198   0.326037  -1.635113   0.163014   7.826561 -19.792885  18.786836 -26.959972 -52.286066   0.258906 -10.941300  -0.511397   3.673498   2.631728  20.924341   2.504630  41.291757  43.882223   0.216519  20.394886  -3.126331   2.205250   0.288407   0.256624  -2.570863   1.572978   6.436495  11.046776  -2.165126   3.636467  -7.533844   0.086568  -8.727002
 -0.045774   0.899234   2.220601  -1.135932  -2.932667  -0.914598 -32.776792   9.235351   2.192552  54.248286   3.430072   0.563643   2.052245   1.781805   7.340143   3.863498  -0.186186   1.705974   3.362107   0.694999  -1.854145   0.232593   7.797386 -19.855630  19.062947 -26.851428 -52.352357   0.262506 -11.006899  -0.516532   3.603882   2.622249  20.839472   1.759195  41.312579  44.141817   0.211676  20.564382  -3.243464   2.178017   0.273090   0.243367  -1.941056   2.101346   6.378166  10.832852  -2.268076   3.589016  -8.034625   0.029588  -8.664499
 -0.045588   0.898659   2.229731  -1.081701  -3.224875  -0.825951 -33.033344   9.169388   2.062413  51.955696   3.533898   0.216518   1.817094   1.799438   7.249991   3.844748  -0.137663   1.799194   3.423433   1.063728  -2.073585   0.302135   7.768136 -19.918335  19.338934 -26.743170 -52.419169   0.266101 -11.072500  -0.521665   3.534253   2.612873  20.754591   1.013418  41.330861  44.401827   0.207197  20.733887  -3.360713   2.150780   0.257781   0.230102  -1.310470   2.629042   6.314004  10.618827  -2.370847   3.541177  -8.535343  -0.027936  -8.602497
 -0.045402   0.898085   2.238860  -1.027000  -3.517000  -0.737000 -33.290000   9.104000   1.932000  49.663500   3.651500  -0.126209   1.581970   1.817440   7.159910   3.825920  -0.089170   1.892430   3.486180   1.432220  -2.293450   0.371640   7.738810 -19.981000  19.614800 -26.635200 -52.486500   0.269690 -11.138100  -0.526794   3.464610   2.603600  20.669700   0.267343  41.346600  44.662200   0.203085  20.903400  -3.478080   2.123540   0.242477   0.216830  -0.679000   3.156000   6.244000  10.404700  -2.473440   3.492950  -9.036000  -0.086000  -8.541000
 -0.045153   0.896805   2.248119  -0.898954  -3.704860  -0.704642 -33.314959   9.088930   1.824003  46.765906   3.633480  -0.359108   1.877637   1.817279   7.007864   3.722088  -0.040519   2.036861   3.540982   1.716238  -2.488331   0.434980   7.654057 -20.023279  19.854162 -26.559921 -52.576114   0.273376 -11.196424  -0.532111   3.401163   2.560450  20.604893  -0.440988  41.277448  44.987226   0.199264  21.083267  -3.573378   2.094887   0.221260   0.212827  -0.193623   3.472775   6.220180  10.434687  -2.488179   3.459644  -9.682871  -0.037832  -8.635086
